#N canvas 819 437 1049 510 10;
#X obj 382 369 convolve_dynamic~ hrirs_fabian.wav;
#X obj 129 369 convolve_dynamic~ hrirs_fabian.wav;
#X obj 130 160 noise~;
#X obj 358 448 dac~;
#X floatatom 336 108 5 0 0 0 - - -, f 5;
#X msg 490 23 0;
#X msg 545 49 45;
#X floatatom 526 223 5 0 0 0 - - -, f 5;
#X obj 490 94 + 0;
#X msg 558 93 90;
#X msg 538 129 135;
#X text 418 221 Current angle:;
#X text 418 221 Current angle:;
#X text 40 160 The signal:;
#X obj 183 334 + 0;
#X obj 382 336 + 1;
#X msg 488 153 180;
#X msg 434 128 215;
#X msg 415 93 270;
#X obj 382 309 * 2;
#X obj 130 241 *~ 0.2;
#X obj 382 262 abs;
#X msg 439 47 315;
#X obj 382 281 mod 360;
#X obj 382 244 - 360;
#X obj 382 191 + 0;
#X text 56 21 This demo does binaural synthesis using convolution.
The position of the sound source can be adjusted in real-time using
the controls on the left., f 29;
#X text 439 277 Note: the HRIRs in hrirs_fabian are counterclockwise
starting 0deg (north). Left channel even \, right channel odd., f
33;
#X obj 274 22 loadbang;
#X connect 0 0 3 1;
#X connect 1 0 3 0;
#X connect 2 0 20 0;
#X connect 4 0 25 0;
#X connect 5 0 8 0;
#X connect 6 0 8 0;
#X connect 8 0 25 0;
#X connect 9 0 8 0;
#X connect 10 0 8 0;
#X connect 14 0 1 0;
#X connect 15 0 0 0;
#X connect 16 0 8 0;
#X connect 17 0 8 0;
#X connect 18 0 8 0;
#X connect 19 0 15 0;
#X connect 19 0 14 0;
#X connect 20 0 0 0;
#X connect 20 0 1 0;
#X connect 21 0 23 0;
#X connect 22 0 8 0;
#X connect 23 0 19 0;
#X connect 24 0 21 0;
#X connect 25 0 7 0;
#X connect 25 0 24 0;
#X connect 28 0 5 0;
