#N canvas 843 333 1042 666 10;
#X obj 386 375 convolve_dynamic~ hrirs_fabian.wav;
#X obj 133 375 convolve_dynamic~ hrirs_fabian.wav;
#X obj 134 166 noise~;
#X obj 362 454 dac~;
#X floatatom 386 142 5 0 0 0 - - -, f 5;
#X obj 187 340 + 180;
#X obj 386 342 + 181;
#X obj 386 229 + 0;
#X msg 443 53 -45;
#X msg 494 29 0;
#X msg 549 55 45;
#X floatatom 541 273 5 0 0 0 - - -, f 5;
#X obj 494 100 + 0;
#X msg 567 102 90;
#X msg 419 99 -90;
#X msg 542 135 135;
#X msg 438 134 -135;
#X msg 494 166 -180;
#X text 436 272 Current angle:;
#X obj 134 247 *~;
#X text 436 272 Current angle:;
#X text 44 166 The signal:;
#X text 60 27 This demo does binaural synthesis using convolution.
The position of the sound source can be adjusted in real-time using
the controls on the left., f 29;
#X connect 0 0 3 1;
#X connect 1 0 3 0;
#X connect 2 0 19 0;
#X connect 4 0 7 0;
#X connect 5 0 1 0;
#X connect 6 0 0 0;
#X connect 7 0 6 0;
#X connect 7 0 5 0;
#X connect 7 0 11 0;
#X connect 8 0 12 0;
#X connect 9 0 12 0;
#X connect 10 0 12 0;
#X connect 12 0 7 0;
#X connect 13 0 12 0;
#X connect 14 0 12 0;
#X connect 15 0 12 0;
#X connect 16 0 12 0;
#X connect 17 0 12 0;
#X connect 19 0 0 0;
#X connect 19 0 1 0;
