#N canvas 310 182 597 300 10;
#X obj 137 207 dac~;
#X obj 137 80 osc~ 400;
#X obj 231 80 osc~ 800;
#X obj 328 79 osc~ 1600;
#X obj 46 44 websocket_recv_server 8080 osc;
#X obj 136 151 audiorouting~ osc1 osc2 osc3;
#X connect 1 0 5 0;
#X connect 2 0 5 1;
#X connect 3 0 5 2;
#X connect 4 0 5 0;
#X connect 5 0 0 0;
#X connect 5 0 0 1;
